<svg width="40" height="41" viewBox="0 0 40 41" fill="none" xmlns="http://www.w3.org/2000/svg">
<path fill-rule="evenodd" clip-rule="evenodd" d="M26.6666 15.4999C26.6666 17.268 25.9642 18.9637 24.714 20.214C23.4637 21.4642 21.768 22.1666 19.9999 22.1666C18.2318 22.1666 16.5361 21.4642 15.2859 20.214C14.0356 18.9637 13.3333 17.268 13.3333 15.4999C13.3333 13.7318 14.0356 12.0361 15.2859 10.7859C16.5361 9.53563 18.2318 8.83325 19.9999 8.83325C21.768 8.83325 23.4637 9.53563 24.714 10.7859C25.9642 12.0361 26.6666 13.7318 26.6666 15.4999ZM23.3333 15.4999C23.3333 16.384 22.9821 17.2318 22.3569 17.8569C21.7318 18.4821 20.884 18.8333 19.9999 18.8333C19.1159 18.8333 18.268 18.4821 17.6429 17.8569C17.0178 17.2318 16.6666 16.384 16.6666 15.4999C16.6666 14.6159 17.0178 13.768 17.6429 13.1429C18.268 12.5178 19.1159 12.1666 19.9999 12.1666C20.884 12.1666 21.7318 12.5178 22.3569 13.1429C22.9821 13.768 23.3333 14.6159 23.3333 15.4999Z" fill="#5C5C5C"/>
<path fill-rule="evenodd" clip-rule="evenodd" d="M20 2.16663C9.87496 2.16663 1.66663 10.375 1.66663 20.5C1.66663 30.625 9.87496 38.8333 20 38.8333C30.125 38.8333 38.3333 30.625 38.3333 20.5C38.3333 10.375 30.125 2.16663 20 2.16663ZM4.99996 20.5C4.99996 23.9833 6.18829 27.19 8.17996 29.7366C9.57868 27.8998 11.3831 26.4112 13.4523 25.3871C15.5216 24.3631 17.7995 23.8313 20.1083 23.8333C22.3872 23.8311 24.6365 24.3492 26.6848 25.3479C28.7332 26.3467 30.5266 27.7998 31.9283 29.5966C33.3724 27.7026 34.3447 25.492 34.7648 23.1476C35.1849 20.8032 35.0407 18.3925 34.3441 16.1149C33.6476 13.8373 32.4187 11.7584 30.7591 10.05C29.0995 8.34167 27.057 7.05306 24.8006 6.29081C22.5441 5.52856 20.1386 5.31458 17.7831 5.66658C15.4275 6.01858 13.1896 6.92644 11.2546 8.31505C9.31954 9.70365 7.74298 11.5331 6.65534 13.652C5.5677 15.7708 5.00026 18.1182 4.99996 20.5ZM20 35.5C16.5565 35.5051 13.2171 34.3205 10.5466 32.1466C11.6215 30.6078 13.0522 29.3515 14.7169 28.4844C16.3817 27.6174 18.2313 27.1653 20.1083 27.1666C21.9619 27.1651 23.7891 27.6059 25.4382 28.4523C27.0872 29.2987 28.5106 30.5264 29.59 32.0333C26.8988 34.2778 23.5043 35.5049 20 35.5Z" fill="#5C5C5C"/>
</svg>
