<svg width="38" height="37" viewBox="0 0 38 37" fill="none" xmlns="http://www.w3.org/2000/svg">
<path d="M0.769436 18.2123L17.6638 1.33029C17.7854 1.20841 17.9299 1.11171 18.089 1.04574C18.248 0.97976 18.4185 0.945801 18.5907 0.945801C18.7629 0.945801 18.9334 0.97976 19.0925 1.04574C19.2515 1.11171 19.396 1.20841 19.5177 1.33029L36.412 18.2123C36.9042 18.7045 37.1831 19.3731 37.1831 20.0703C37.1831 21.5182 36.006 22.6953 34.5581 22.6953H32.778V34.7416C32.778 35.4676 32.1915 36.0541 31.4655 36.0541H21.2157V26.8666H16.622V36.0541H5.71592C4.98994 36.0541 4.40342 35.4676 4.40342 34.7416V22.6953H2.62334C1.92608 22.6953 1.25752 22.4205 0.765335 21.9242C-0.255955 20.8988 -0.255955 19.2377 0.769436 18.2123Z" fill="#5C5C5C"/>
</svg>
