<svg width="36" height="36" viewBox="0 0 36 36" fill="none" xmlns="http://www.w3.org/2000/svg">
<path d="M32.12 10H3.88C3.38139 10 2.90321 10.1981 2.55064 10.5506C2.19807 10.9032 2 11.3814 2 11.88V30.12C2 30.6186 2.19807 31.0968 2.55064 31.4494C2.90321 31.8019 3.38139 32 3.88 32H32.12C32.6186 32 33.0968 31.8019 33.4494 31.4494C33.8019 31.0968 34 30.6186 34 30.12V11.88C34 11.3814 33.8019 10.9032 33.4494 10.5506C33.0968 10.1981 32.6186 10 32.12 10ZM24.18 21.83L14.41 26.19C14.2579 26.2584 14.0911 26.2876 13.9247 26.2751C13.7584 26.2625 13.5979 26.2086 13.4577 26.1181C13.3176 26.0277 13.2023 25.9036 13.1224 25.7572C13.0424 25.6108 13.0003 25.4468 13 25.28V16.56C13.0003 16.3932 13.0424 16.2292 13.1224 16.0828C13.2023 15.9364 13.3176 15.8123 13.4577 15.7219C13.5979 15.6314 13.7584 15.5775 13.9247 15.5649C14.0911 15.5524 14.2579 15.5816 14.41 15.65L24.18 20C24.3575 20.0782 24.5083 20.2064 24.6142 20.3689C24.7202 20.5313 24.7765 20.7211 24.7765 20.915C24.7765 21.1089 24.7202 21.2987 24.6142 21.4611C24.5083 21.6236 24.3575 21.7518 24.18 21.83Z" fill="#5C5C5C"/>
<path d="M30.1399 3C30.1399 2.73478 30.0345 2.48043 29.847 2.29289C29.6595 2.10536 29.4051 2 29.1399 2H7.13989C6.87468 2 6.62032 2.10536 6.43279 2.29289C6.24525 2.48043 6.13989 2.73478 6.13989 3V4H30.1399V3Z" fill="#5C5C5C"/>
<path d="M32.1201 7C32.1201 6.73478 32.0148 6.48043 31.8272 6.29289C31.6397 6.10536 31.3853 6 31.1201 6H5.12012C4.8549 6 4.60055 6.10536 4.41301 6.29289C4.22547 6.48043 4.12012 6.73478 4.12012 7V8H32.1201V7Z" fill="#5C5C5C"/>
</svg>
