<svg width="100" height="99" viewBox="0 0 100 99" fill="none" xmlns="http://www.w3.org/2000/svg">
<rect width="100" height="99" rx="49.5" fill="#A54DCF"/>
<path d="M58.1413 46.3528L58.5013 43.5628C58.5013 40.8028 57.4213 39.0328 55.2613 38.2528C53.5813 37.7128 52.2913 37.4428 51.3913 37.4428H51.3013C49.5013 37.4428 47.9413 37.7428 46.6213 38.3428C45.3013 38.8828 44.3413 39.5728 43.7413 40.4128C42.4813 42.1528 41.7613 43.9828 41.5813 45.9028C41.5813 48.1828 42.6013 50.1628 44.6413 51.8428C46.6813 53.4628 49.1413 54.9028 52.0213 56.1628C54.9613 57.3628 57.8713 58.6828 60.7513 60.1228C63.6913 61.5628 66.1813 63.6328 68.2213 66.3328C70.2613 69.0328 71.2813 72.2728 71.2813 76.0528C71.2813 83.4328 68.9413 88.9528 64.2613 92.6128C59.6413 96.2728 54.3613 98.1028 48.4213 98.1028C42.5413 98.1028 37.6513 96.7828 33.7513 94.1428C29.9113 91.4428 27.9913 87.8428 27.9913 83.3428V83.2528C27.9913 81.0328 28.3213 79.1128 28.9813 77.4928C29.7013 75.8128 30.5413 74.5828 31.5013 73.8028C33.4813 72.1828 35.2813 71.3128 36.9013 71.1928L37.9813 71.1028C39.6613 71.1028 41.1913 71.5228 42.5713 72.3628C43.9513 73.1428 44.6413 74.2528 44.6413 75.6928C44.6413 76.4128 44.2513 77.0128 43.4713 77.4928C42.6913 77.9728 42.0013 78.6928 41.4013 79.6528C40.8613 80.6128 40.5613 81.4228 40.5013 82.0828L40.3213 83.0728C40.3213 86.7328 42.0013 89.1628 45.3613 90.3628C46.5613 90.7828 47.5213 90.9928 48.2413 90.9928C51.5413 90.9928 54.1813 90.0028 56.1613 88.0228C58.2013 86.0428 59.2213 83.5228 59.2213 80.4628C59.2213 76.8028 57.6613 73.8328 54.5413 71.5528C52.2013 69.8728 49.6513 68.4628 46.8913 67.3228C44.1913 66.1828 42.3613 65.3728 41.4013 64.8928C40.4413 64.4128 39.4213 63.8428 38.3413 63.1828C37.2613 62.5228 36.0613 61.5928 34.7413 60.3928C31.8613 57.8728 30.4213 54.4828 30.4213 50.2228C30.4213 45.9028 31.5913 42.2728 33.9313 39.3328C38.1313 33.9928 44.4313 31.3228 52.8313 31.3228C57.2713 31.3228 61.0213 32.1928 64.0813 33.9328C67.1413 35.6128 68.6713 37.9528 68.6713 40.9528C68.6713 43.1128 68.0413 44.9128 66.7813 46.3528C65.5813 47.7928 64.0213 48.5128 62.1013 48.5128C61.2013 48.5128 60.3013 48.3328 59.4013 47.9728C58.5613 47.6128 58.1413 47.0728 58.1413 46.3528Z" fill="white"/>
</svg>
