<svg width="42" height="41" viewBox="0 0 42 41" fill="none" xmlns="http://www.w3.org/2000/svg">
<path d="M4.08926 13.5493C5.00948 11.4053 6.34822 9.45653 8.03086 7.81166C9.70847 6.16392 11.7013 4.85388 13.8961 3.9559C16.1445 3.03152 18.5603 2.55769 21 2.56254H21.082C23.5635 2.57455 25.9629 3.05502 28.2229 3.99994C30.3989 4.90712 32.3729 6.2195 34.0348 7.86371C35.7011 9.50488 37.0245 11.4468 37.9313 13.5813C38.8725 15.8009 39.3494 18.1819 39.334 20.5841C39.3217 23.3628 38.6408 26.1215 37.3693 28.5879V34.6739C37.3693 35.6909 36.5244 36.5157 35.4867 36.5157H29.2605C26.7222 37.766 23.9211 38.4239 21.0779 38.4375H20.9918C18.5391 38.4375 16.1643 37.9731 13.9248 37.0642C11.7411 36.1769 9.75573 34.8822 8.08008 33.2525C6.39024 31.6149 5.06133 29.701 4.13028 27.5669C3.16641 25.3568 2.67422 23.0065 2.66192 20.5801C2.65372 18.1417 3.1377 15.7754 4.08926 13.5493ZM29.1867 22.4219C30.2695 22.4219 31.1514 21.5611 31.1514 20.5C31.1514 19.439 30.2695 18.5782 29.1867 18.5782C28.1039 18.5782 27.2221 19.439 27.2221 20.5C27.2221 21.5611 28.0998 22.4219 29.1867 22.4219ZM21 22.4219C22.0828 22.4219 22.9647 21.5611 22.9647 20.5C22.9647 19.439 22.0828 18.5782 21 18.5782C19.9172 18.5782 19.0354 19.439 19.0354 20.5C19.0354 21.5611 19.9172 22.4219 21 22.4219ZM12.8133 22.4219C13.8961 22.4219 14.7779 21.5611 14.7779 20.5C14.7779 19.439 13.8961 18.5782 12.8133 18.5782C11.7305 18.5782 10.8486 19.439 10.8486 20.5C10.8486 21.5611 11.7305 22.4219 12.8133 22.4219Z" fill="#5C5C5C"/>
</svg>
