<svg width="24" height="25" viewBox="0 0 24 25" fill="none" xmlns="http://www.w3.org/2000/svg">
<path d="M2 12.5L7 16.5V13.5H16V11.5H7V8.5L2 12.5Z" fill="black"/>
<path d="M13.001 3.499C11.8185 3.49572 10.6471 3.72711 9.55471 4.17976C8.4623 4.63241 7.47057 5.29733 6.63696 6.136L8.05096 7.55C9.37296 6.228 11.131 5.499 13.001 5.499C14.871 5.499 16.629 6.228 17.951 7.55C19.273 8.872 20.002 10.63 20.002 12.5C20.002 14.37 19.273 16.128 17.951 17.45C16.629 18.772 14.871 19.501 13.001 19.501C11.131 19.501 9.37296 18.772 8.05096 17.45L6.63696 18.864C8.33596 20.564 10.596 21.501 13.001 21.501C15.406 21.501 17.666 20.564 19.365 18.864C21.065 17.165 22.002 14.905 22.002 12.5C22.002 10.095 21.065 7.835 19.365 6.136C18.5314 5.29733 17.5396 4.63241 16.4472 4.17976C15.3548 3.72711 14.1834 3.49572 13.001 3.499Z" fill="black"/>
</svg>
