<svg width="42" height="42" viewBox="0 0 42 42" fill="none" xmlns="http://www.w3.org/2000/svg">
<path class="svgInternalID" d="M21.0206 16.0207C19.7942 16.0207 18.6457 16.4965 17.7762 17.366C16.9108 18.2356 16.4309 19.384 16.4309 20.6104C16.4309 21.8367 16.9108 22.9852 17.7762 23.8547C18.6457 24.7201 19.7942 25.2 21.0206 25.2C22.2469 25.2 23.3954 24.7201 24.2649 23.8547C25.1303 22.9852 25.6102 21.8367 25.6102 20.6104C25.6102 19.384 25.1303 18.2356 24.2649 17.366C23.8402 16.9381 23.3347 16.5988 22.7777 16.3678C22.2208 16.1369 21.6235 16.0189 21.0206 16.0207ZM37.9313 25.6799L35.2489 23.3871C35.376 22.6078 35.4416 21.8121 35.4416 21.0205C35.4416 20.2289 35.376 19.4291 35.2489 18.6539L37.9313 16.3612C38.1339 16.1877 38.279 15.9566 38.3471 15.6987C38.4152 15.4409 38.4032 15.1683 38.3127 14.9174L38.2758 14.8108C37.5376 12.7464 36.4314 10.8329 35.011 9.16291L34.9371 9.07678C34.7647 8.87397 34.5348 8.72818 34.2778 8.65862C34.0208 8.58906 33.7487 8.599 33.4975 8.68713L30.167 9.87249C28.9366 8.8635 27.5666 8.0678 26.0819 7.51409L25.4379 4.03186C25.3894 3.76953 25.2621 3.5282 25.0731 3.33992C24.8841 3.15164 24.6422 3.02532 24.3797 2.97776L24.269 2.95725C22.1362 2.5717 19.8885 2.5717 17.7557 2.95725L17.645 2.97776C17.3825 3.02532 17.1406 3.15164 16.9516 3.33992C16.7626 3.5282 16.6353 3.76953 16.5868 4.03186L15.9387 7.53049C14.468 8.08862 13.098 8.88239 11.8823 9.88069L8.5272 8.68713C8.27604 8.5983 8.0038 8.588 7.74665 8.6576C7.4895 8.7272 7.25962 8.8734 7.08755 9.07678L7.01372 9.16291C5.59578 10.8347 4.48991 12.7477 3.74888 14.8108L3.71196 14.9174C3.52739 15.4301 3.67915 16.0043 4.09341 16.3612L6.80864 18.6785C6.68149 19.4496 6.61997 20.2371 6.61997 21.0164C6.61997 21.8039 6.68149 22.5914 6.80864 23.3543L4.10161 25.6717C3.89898 25.8452 3.75395 26.0762 3.68581 26.3341C3.61768 26.592 3.62966 26.8645 3.72017 27.1155L3.75708 27.2221C4.49946 29.2852 5.59458 31.1924 7.02192 32.8699L7.09575 32.9561C7.26824 33.1589 7.49813 33.3047 7.75513 33.3742C8.01213 33.4438 8.28417 33.4339 8.5354 33.3457L11.8905 32.1522C13.1127 33.1571 14.4745 33.9528 15.9469 34.5024L16.595 38.001C16.6436 38.2633 16.7708 38.5047 16.9598 38.6929C17.1488 38.8812 17.3907 39.0075 17.6532 39.0551L17.7639 39.0756C19.9177 39.4632 22.1234 39.4632 24.2772 39.0756L24.3879 39.0551C24.6504 39.0075 24.8923 38.8812 25.0813 38.6929C25.2703 38.5047 25.3976 38.2633 25.4461 38.001L26.0901 34.5188C27.5748 33.961 28.9448 33.1694 30.1752 32.1604L33.5057 33.3457C33.7569 33.4346 34.0291 33.4449 34.2863 33.3753C34.5434 33.3057 34.7733 33.1595 34.9454 32.9561L35.0192 32.8699C36.4465 31.1842 37.5416 29.2852 38.284 27.2221L38.3209 27.1155C38.4973 26.6069 38.3455 26.0367 37.9313 25.6799ZM21.0206 27.8209C17.0379 27.8209 13.81 24.593 13.81 20.6104C13.81 16.6278 17.0379 13.3998 21.0206 13.3998C25.0032 13.3998 28.2311 16.6278 28.2311 20.6104C28.2311 24.593 25.0032 27.8209 21.0206 27.8209Z" fill="#5C5C5C"/>
</svg>
