<svg width="54" height="54" viewBox="0 0 54 54" fill="none" xmlns="http://www.w3.org/2000/svg">
<path d="M43.3958 27.9706V23.6875H40.0833V28.6562C40.0833 29.0955 40.2579 29.5167 40.5685 29.8272L45.052 34.3107V36.9375H8.6145V34.3107L13.098 29.8272C13.4086 29.5167 13.5832 29.0955 13.5833 28.6562V22.0312C13.5786 19.7039 14.1883 17.4165 15.3506 15.4002C16.5129 13.3838 18.1868 11.7099 20.2031 10.5475C22.2194 9.38508 24.5068 8.77536 26.8342 8.77989C29.1615 8.78443 31.4465 9.40306 33.4583 10.5733V6.87159C31.8817 6.17352 30.2048 5.72859 28.4895 5.55322V2.15625H25.177V5.55156C21.0936 5.96717 17.3094 7.8821 14.5561 10.9261C11.8027 13.97 10.2759 17.9268 10.2708 22.0312V27.9706L5.78728 32.454C5.47665 32.7646 5.3021 33.1858 5.302 33.625V38.5938C5.302 39.033 5.4765 39.4543 5.78711 39.7649C6.09771 40.0755 6.51899 40.25 6.95825 40.25H18.552V41.9062C18.552 44.1026 19.4245 46.2089 20.9775 47.762C22.5306 49.315 24.6369 50.1875 26.8333 50.1875C29.0296 50.1875 31.1359 49.315 32.689 47.762C34.242 46.2089 35.1145 44.1026 35.1145 41.9062V40.25H46.7083C47.1475 40.25 47.5688 40.0755 47.8794 39.7649C48.19 39.4543 48.3645 39.033 48.3645 38.5938V33.625C48.3644 33.1858 48.1898 32.7646 47.8792 32.454L43.3958 27.9706ZM31.802 41.9062C31.802 43.224 31.2785 44.4879 30.3467 45.4197C29.4149 46.3515 28.151 46.875 26.8333 46.875C25.5155 46.875 24.2516 46.3515 23.3198 45.4197C22.388 44.4879 21.8645 43.224 21.8645 41.9062V40.25H31.802V41.9062Z" fill="black"/>
<path d="M43.3958 20.375C47.0546 20.375 50.0208 17.4089 50.0208 13.75C50.0208 10.0911 47.0546 7.125 43.3958 7.125C39.7369 7.125 36.7708 10.0911 36.7708 13.75C36.7708 17.4089 39.7369 20.375 43.3958 20.375Z" fill="black"/>
</svg>
