<svg width="671" height="635" viewBox="0 0 671 635" fill="none" xmlns="http://www.w3.org/2000/svg">
<g clip-path="url(#clip0)">
<path d="M408.557 366.354L415.75 397.573L422.944 428.792H408.557H394.17L401.363 397.573L408.557 366.354Z" fill="#3AD29F"/>
<path d="M422.722 362.125L429.908 393.344L437.102 424.572H422.722H408.335L415.528 393.344L422.722 362.125Z" fill="#3AD29F"/>
<path d="M436.88 362.125L444.073 393.344L451.267 424.572H436.88H422.493L429.686 393.344L436.88 362.125Z" fill="#3AD29F"/>
<path d="M546.252 381.187L553.445 412.406L560.639 443.634H546.252H531.865L539.058 412.406L546.252 381.187Z" fill="#3AD29F"/>
<path d="M86.1579 350.47L98.4744 379.068L110.791 407.665L96.7405 411.49L82.6829 415.324L84.4168 382.893L86.1579 350.47Z" fill="#3AD29F"/>
<path d="M0 634.883L27.2266 474.162L47.2883 440.941L67.3501 397.842L104.608 370.008L132.551 350.255L144.014 393.353L166.039 411.832L179.839 437.349L201.334 428.37L228.56 400.536L249.339 393.353L278.715 370.008L305.941 378.987L333.884 366.417L352.513 350.255L370.425 377.191L380.456 412.209L382.606 424.779H408.399H437.059L454.971 400.536L482.914 393.353H510.141L528.77 400.536L561.728 412.209L634.81 634.883H0Z" fill="#E0E0E0"/>
<g opacity="0.3">
<path opacity="0.3" d="M204.142 160.523H115.126C109.166 160.523 104.335 166.577 104.335 174.045C104.335 181.513 109.166 187.568 115.126 187.568H204.142C210.102 187.568 214.933 181.513 214.933 174.045C214.933 166.577 210.102 160.523 204.142 160.523Z" fill="#E0E0E0"/>
<path opacity="0.3" d="M177.166 187.568H88.1498C82.1904 187.568 77.3594 193.622 77.3594 201.09C77.3594 208.558 82.1904 214.612 88.1498 214.612H177.166C183.126 214.612 187.957 208.558 187.957 201.09C187.957 193.622 183.126 187.568 177.166 187.568Z" fill="#E0E0E0"/>
<path opacity="0.3" d="M204.142 214.612H115.126C109.166 214.612 104.335 220.666 104.335 228.134C104.335 235.602 109.166 241.656 115.126 241.656H204.142C210.102 241.656 214.933 235.602 214.933 228.134C214.933 220.666 210.102 214.612 204.142 214.612Z" fill="#E0E0E0"/>
</g>
<g opacity="0.5">
<path opacity="0.5" d="M305.941 603.736H161.927L170.36 128.783H297.508L305.941 603.736Z" fill="url(#paint0_linear)"/>
</g>
<path d="M303.133 603.736H164.886L172.975 128.783H295.036L303.133 603.736Z" fill="white"/>
<g opacity="0.05">
<path opacity="0.05" d="M197.93 603.736H164.886L172.975 128.783H189.834L197.93 603.736Z" fill="black"/>
</g>
<path d="M143.979 424.572H324.713C324.713 433.09 322.013 441.26 317.207 447.283C312.4 453.306 305.882 456.69 299.084 456.69H169.607C162.81 456.69 156.291 453.306 151.485 447.283C146.679 441.26 143.979 433.09 143.979 424.572Z" fill="#943FD8"/>
<path d="M143.979 264.875H324.713C324.713 273.393 322.013 281.562 317.207 287.585C312.4 293.609 305.882 296.992 299.084 296.992H169.607C162.81 296.992 156.291 293.609 151.485 287.585C146.679 281.562 143.979 273.393 143.979 264.875Z" fill="#943FD8"/>
<path d="M234.342 238.226C252.592 238.226 267.387 219.686 267.387 196.816C267.387 173.945 252.592 155.405 234.342 155.405C216.092 155.405 201.298 173.945 201.298 196.816C201.298 219.686 216.092 238.226 234.342 238.226Z" fill="#FFFFA5"/>
<path opacity="0.1" d="M300.431 456.681H167.58V459.213H300.431V456.681Z" fill="black"/>
<path opacity="0.1" d="M297.737 296.957H169.607V298.645H297.737V296.957Z" fill="black"/>
<path d="M270.762 603.736H228.274V530.63C228.274 523.57 230.512 516.798 234.496 511.806C238.48 506.813 243.883 504.008 249.518 504.008C255.151 504.01 260.554 506.816 264.537 511.808C268.521 516.8 270.76 523.57 270.762 530.63V603.736Z" fill="#E0E0E0"/>
<path d="M632.897 635H0.32959C0.32959 635 41.1695 517.377 103.074 496.565C111.998 493.501 121.316 492.674 130.494 494.131C145.426 496.511 158.932 506.325 168.526 520.861C188.817 551.605 250.958 618.596 375.29 542.042C375.29 542.042 419.799 486.266 491.283 552.179C495.711 554.939 500.256 557.397 504.896 559.542C526.828 569.93 570.699 584.404 601.887 553.867C645.042 511.613 632.897 635 632.897 635Z" fill="#E22CBA"/>
<g opacity="0.3">
<path opacity="0.3" d="M499.336 35.7178H410.319C404.36 35.7178 399.529 41.7718 399.529 49.2399C399.529 56.7079 404.36 62.762 410.319 62.762H499.336C505.295 62.762 510.126 56.7079 510.126 49.2399C510.126 41.7718 505.295 35.7178 499.336 35.7178Z" fill="#E0E0E0"/>
<path opacity="0.3" d="M472.36 62.762H383.344C377.384 62.762 372.553 68.816 372.553 76.2841C372.553 83.7521 377.384 89.8062 383.344 89.8062H472.36C478.32 89.8062 483.151 83.7521 483.151 76.2841C483.151 68.816 478.32 62.762 472.36 62.762Z" fill="#E0E0E0"/>
<path opacity="0.3" d="M499.336 89.8062H410.319C404.36 89.8062 399.529 95.8602 399.529 103.328C399.529 110.796 404.36 116.85 410.319 116.85H499.336C505.295 116.85 510.126 110.796 510.126 103.328C510.126 95.8602 505.295 89.8062 499.336 89.8062Z" fill="#E0E0E0"/>
</g>
<g opacity="0.3">
<path opacity="0.3" d="M591.047 224.273H502.03C496.071 224.273 491.24 230.327 491.24 237.795C491.24 245.263 496.071 251.317 502.03 251.317H591.047C597.006 251.317 601.837 245.263 601.837 237.795C601.837 230.327 597.006 224.273 591.047 224.273Z" fill="#E0E0E0"/>
<path opacity="0.3" d="M564.071 251.317H475.054C469.095 251.317 464.264 257.371 464.264 264.839C464.264 272.307 469.095 278.361 475.054 278.361H564.071C570.03 278.361 574.861 272.307 574.861 264.839C574.861 257.371 570.03 251.317 564.071 251.317Z" fill="#E0E0E0"/>
<path opacity="0.3" d="M591.047 278.361H502.03C496.071 278.361 491.24 284.415 491.24 291.883C491.24 299.351 496.071 305.406 502.03 305.406H591.047C597.006 305.406 601.837 299.351 601.837 291.883C601.837 284.415 597.006 278.361 591.047 278.361Z" fill="#E0E0E0"/>
</g>
<g opacity="0.3">
<path opacity="0.3" d="M454.864 232.731H478.465C478.465 232.731 469.573 252.448 454.864 232.731Z" fill="#030B44"/>
<path opacity="0.3" d="M456.289 241.117L471.766 218.787C471.766 218.787 477.813 240.13 456.289 241.117Z" fill="#030B44"/>
</g>
<g opacity="0.3">
<path opacity="0.3" d="M370.569 294.424H394.17C394.17 294.424 385.278 314.142 370.569 294.424Z" fill="#030B44"/>
<path opacity="0.3" d="M371.994 302.811L387.463 280.48C387.463 280.48 393.518 301.823 371.994 302.811Z" fill="#030B44"/>
</g>
<g opacity="0.3">
<path opacity="0.3" d="M340.039 62.8607H365.353C365.353 62.8607 355.816 84.0507 340.039 62.8607Z" fill="#030B44"/>
<path opacity="0.3" d="M341.565 71.8664L358.166 47.902C358.166 47.902 364.658 70.7979 341.565 71.8664Z" fill="#030B44"/>
</g>
<g opacity="0.05">
<path opacity="0.05" d="M166.039 456.555C166.756 456.636 167.508 456.681 168.253 456.681H194.047L193.502 424.572H166.605L166.039 456.555Z" fill="black"/>
</g>
<g opacity="0.05">
<path opacity="0.05" d="M192.155 264.848H170.661L170.109 296.956H192.7L192.155 264.848Z" fill="black"/>
</g>
<path d="M669.961 413.178C670.246 413.178 670.52 413.036 670.721 412.784C670.923 412.531 671.036 412.189 671.036 411.831C671.036 411.474 670.923 411.132 670.721 410.879C670.52 410.627 670.246 410.485 669.961 410.485C669.676 410.485 669.403 410.627 669.201 410.879C669 411.132 668.886 411.474 668.886 411.831C668.886 412.189 669 412.531 669.201 412.784C669.403 413.036 669.676 413.178 669.961 413.178Z" fill="#4D8AF0"/>
<path d="M325.05 95.364C325.05 126.961 284.289 152.568 234.006 152.568C183.722 152.568 142.961 126.961 142.961 95.364C142.961 63.7676 183.722 0 234.006 0C284.289 0 325.05 63.7766 325.05 95.364Z" fill="#943FD8"/>
<g opacity="0.05">
<path opacity="0.05" d="M142.431 95.364C142.431 126.961 183.192 152.568 233.475 152.568V0C183.192 0 142.431 63.7766 142.431 95.364Z" fill="black"/>
</g>
</g>
<defs>
<linearGradient id="paint0_linear" x1="233.934" y1="603.736" x2="233.934" y2="128.783" gradientUnits="userSpaceOnUse">
<stop stop-color="#808080" stop-opacity="0.25"/>
<stop offset="0.54" stop-color="#808080" stop-opacity="0.12"/>
<stop offset="1" stop-color="#808080" stop-opacity="0.1"/>
</linearGradient>
<clipPath id="clip0">
<rect width="671" height="635" fill="white"/>
</clipPath>
</defs>
</svg>
