<svg width="411" height="389" viewBox="0 0 411 389" fill="none" xmlns="http://www.w3.org/2000/svg">
<g clip-path="url(#clip0)">
<path d="M81.2384 202.732L75.8237 128.965L59.6781 129.681L72.4591 202.526C71.4163 203.651 70.6656 205.158 70.3074 206.846C69.9492 208.534 70.0005 210.322 70.4545 211.972C70.9085 213.621 71.7435 215.053 72.8479 216.076C73.9523 217.099 75.2734 217.664 76.6345 217.696C77.9957 217.728 79.332 217.225 80.4647 216.255C81.5974 215.284 82.4726 213.893 82.9732 212.265C83.4737 210.638 83.5758 208.854 83.2658 207.15C82.9558 205.446 82.2485 203.905 81.2384 202.732L81.2384 202.732Z" fill="#FFB8B8"/>
<path d="M388.183 367.147C388.035 374.292 387.103 381.373 385.418 388.184C385.379 388.342 385.338 388.498 385.298 388.655H374.975C374.986 388.512 374.997 388.355 375.008 388.184C375.696 378.014 379.664 316.119 374.92 305.534C375.335 306.394 388.982 334.834 388.183 367.147Z" fill="#F0F0F0"/>
<path d="M386.527 387.67C386.346 388 386.158 388.331 385.966 388.656H369.771C369.894 388.375 370.036 388.045 370.201 387.67C372.877 381.463 380.795 362.913 388.147 343.675C396.046 323.004 403.294 301.55 402.683 293.784C402.871 295.536 408.335 348.924 386.527 387.67Z" fill="#F0F0F0"/>
<path d="M30.8175 356.31C31.0393 366.95 32.4262 377.496 34.9374 387.639C34.993 387.874 35.0548 388.106 35.115 388.342H50.4878C50.4716 388.131 50.4549 387.895 50.4388 387.639C49.4138 372.494 43.504 280.319 50.5702 264.557C49.9516 265.835 29.6232 308.188 30.8175 356.31Z" fill="#F0F0F0"/>
<path d="M31.971 387.639C32.0997 387.874 32.2333 388.11 32.3702 388.342H43.9026C43.8152 388.141 43.7139 387.906 43.5964 387.639C41.6913 383.22 36.052 370.007 30.8175 356.31C25.1944 341.59 20.0311 326.312 20.4659 320.783C20.3317 322.029 16.439 360.048 31.971 387.639Z" fill="#F0F0F0"/>
<path d="M364.994 311.324H204.503C203.716 311.323 202.96 310.92 202.403 310.204C201.846 309.488 201.533 308.518 201.531 307.505V256.339C201.533 255.327 201.846 254.356 202.403 253.64C202.96 252.924 203.716 252.521 204.503 252.52H364.994C365.782 252.521 366.538 252.924 367.095 253.64C367.652 254.356 367.965 255.327 367.966 256.339V307.504C367.965 308.517 367.652 309.488 367.095 310.204C366.538 310.92 365.782 311.323 364.994 311.324ZM204.503 254.045C204.031 254.046 203.579 254.288 203.245 254.717C202.911 255.146 202.723 255.728 202.722 256.334V307.499C202.723 308.106 202.911 308.688 203.245 309.117C203.579 309.546 204.031 309.788 204.503 309.789H364.994C365.467 309.788 365.919 309.546 366.253 309.117C366.587 308.688 366.775 308.106 366.776 307.499V256.339C366.775 255.733 366.587 255.151 366.253 254.722C365.919 254.293 365.467 254.051 364.994 254.05L204.503 254.045Z" fill="#3F3D56"/>
<path d="M189.354 373.078C196.041 373.078 201.461 366.112 201.461 357.519C201.461 348.926 196.041 341.96 189.354 341.96C182.668 341.96 177.248 348.926 177.248 357.519C177.248 366.112 182.668 373.078 189.354 373.078Z" fill="#E6E6E6"/>
<path d="M217.315 347.683C216.78 347.683 216.267 347.957 215.889 348.443C215.51 348.929 215.298 349.589 215.298 350.277C215.298 350.964 215.51 351.624 215.889 352.11C216.267 352.596 216.78 352.87 217.315 352.87H312.438C312.703 352.87 312.966 352.804 313.211 352.674C313.456 352.545 313.678 352.354 313.866 352.114C314.054 351.873 314.203 351.588 314.305 351.274C314.407 350.959 314.459 350.622 314.46 350.282C314.46 349.941 314.409 349.604 314.308 349.289C314.207 348.974 314.059 348.688 313.872 348.447C313.685 348.205 313.463 348.014 313.218 347.883C312.974 347.752 312.711 347.684 312.446 347.683H217.315Z" fill="#E6E6E6"/>
<path d="M217.315 363.243C216.78 363.242 216.266 363.514 215.887 363.999C215.508 364.484 215.295 365.143 215.294 365.831C215.293 366.519 215.504 367.179 215.882 367.666C216.259 368.153 216.772 368.428 217.307 368.429H258.247C258.782 368.429 259.295 368.156 259.674 367.67C260.052 367.184 260.265 366.524 260.265 365.836C260.265 365.149 260.052 364.489 259.674 364.003C259.295 363.516 258.782 363.243 258.247 363.243H217.315Z" fill="#E6E6E6"/>
<path d="M229.44 297.233C236.126 297.233 241.546 290.267 241.546 281.674C241.546 273.081 236.126 266.115 229.44 266.115C222.754 266.115 217.334 273.081 217.334 281.674C217.334 290.267 222.754 297.233 229.44 297.233Z" fill="#E6E6E6"/>
<path d="M257.401 271.838C256.866 271.838 256.353 272.112 255.974 272.598C255.596 273.084 255.383 273.744 255.383 274.431C255.383 275.119 255.596 275.779 255.974 276.265C256.353 276.751 256.866 277.025 257.401 277.025H352.524C353.059 277.025 353.572 276.751 353.951 276.265C354.329 275.779 354.542 275.119 354.542 274.431C354.542 273.744 354.329 273.084 353.951 272.598C353.572 272.112 353.059 271.838 352.524 271.838H257.401Z" fill="#E6E6E6"/>
<path d="M257.401 287.398C256.866 287.398 256.353 287.671 255.974 288.158C255.596 288.644 255.383 289.303 255.383 289.991C255.383 290.679 255.596 291.338 255.974 291.825C256.353 292.311 256.866 292.584 257.401 292.584H298.333C298.868 292.584 299.381 292.311 299.759 291.825C300.138 291.338 300.35 290.679 300.35 289.991C300.35 289.303 300.138 288.644 299.759 288.158C299.381 287.671 298.868 287.398 298.333 287.398H257.401Z" fill="#E6E6E6"/>
<path d="M333.817 184.677H173.326C172.538 184.676 171.783 184.273 171.225 183.557C170.668 182.841 170.355 181.87 170.354 180.858V4.47594C170.355 3.46337 170.668 2.49265 171.225 1.77665C171.783 1.06065 172.538 0.657819 173.326 0.656494H333.817C334.605 0.657819 335.36 1.06065 335.917 1.77665C336.474 2.49265 336.788 3.46337 336.789 4.47594V180.857C336.788 181.87 336.474 182.84 335.917 183.556C335.36 184.272 334.605 184.675 333.817 184.676V184.677ZM173.326 2.18127C172.854 2.18259 172.401 2.42425 172.067 2.85336C171.733 3.28247 171.545 3.86408 171.544 4.47093V180.857C171.545 181.464 171.733 182.045 172.067 182.475C172.401 182.904 172.854 183.145 173.326 183.147H333.817C334.289 183.145 334.742 182.904 335.076 182.475C335.41 182.046 335.598 181.464 335.598 180.857V4.47594C335.597 3.86909 335.409 3.28748 335.075 2.85837C334.742 2.42926 334.289 2.1876 333.817 2.18628L173.326 2.18127Z" fill="#3F3D56"/>
<path d="M198.262 47.2319C204.948 47.2319 210.369 40.2659 210.369 31.6729C210.369 23.0799 204.948 16.1139 198.262 16.1139C191.576 16.1139 186.156 23.0799 186.156 31.6729C186.156 40.2659 191.576 47.2319 198.262 47.2319Z" fill="#943FD8"/>
<path d="M226.223 21.3C225.688 21.3 225.175 21.5732 224.796 22.0595C224.418 22.5458 224.206 23.2054 224.206 23.8931C224.206 24.5808 224.418 25.2404 224.796 25.7267C225.175 26.213 225.688 26.4861 226.223 26.4861H321.346C321.881 26.4861 322.395 26.213 322.773 25.7267C323.151 25.2404 323.364 24.5808 323.364 23.8931C323.364 23.2054 323.151 22.5458 322.773 22.0595C322.395 21.5732 321.881 21.3 321.346 21.3H226.223Z" fill="#CCCCCC"/>
<path d="M226.223 36.8597C225.688 36.8597 225.175 37.1329 224.796 37.6192C224.418 38.1055 224.206 38.7651 224.206 39.4528C224.206 40.1405 224.418 40.8001 224.796 41.2864C225.175 41.7726 225.688 42.0458 226.223 42.0458H267.155C267.69 42.0458 268.203 41.7726 268.582 41.2864C268.96 40.8001 269.173 40.1405 269.173 39.4528C269.173 38.7651 268.96 38.1055 268.582 37.6192C268.203 37.1329 267.69 36.8597 267.155 36.8597H226.223Z" fill="#CCCCCC"/>
<path d="M129.827 373.673H117.579L110.341 242.733L110.063 276.005L83.3391 367.591L72.7609 356.859L90.2984 265.63L81.9472 214.828H136.508L129.827 373.673Z" fill="#2F2E41"/>
<path d="M110.341 53.1199C118.336 53.1199 124.817 44.7909 124.817 34.5164C124.817 24.2419 118.336 15.9128 110.341 15.9128C102.347 15.9128 95.8658 24.2419 95.8658 34.5164C95.8658 44.7909 102.347 53.1199 110.341 53.1199Z" fill="#FFB8B8"/>
<path d="M138.179 224.845C114.53 217.046 92.34 211.79 78.6073 221.267C81.0124 188.775 78.2304 147.298 69.9778 103.947C67.2976 89.8662 69.1154 77.1786 78.8857 69.9347L91.9692 60.2751L112.012 60.9907L122.469 68.4264C127.583 71.7102 131.723 77.0492 134.261 83.6325C136.798 90.2157 137.595 97.6834 136.529 104.901C130.91 142.901 133.947 183.913 138.179 224.845Z" fill="#3F3D56"/>
<path d="M84.1748 133.974L58.0078 131.827C60.0521 98.7444 65.8701 80.6596 74.7101 74.5856L84.1748 88.896V133.974Z" fill="#3F3D56"/>
<path d="M371.948 161.795H211.456C210.668 161.794 209.913 161.391 209.356 160.675C208.798 159.959 208.485 158.989 208.484 157.976V67.4575C208.485 66.4449 208.798 65.474 209.356 64.758C209.913 64.042 210.668 63.6392 211.456 63.6381H371.948C372.736 63.6392 373.491 64.042 374.048 64.758C374.605 65.474 374.919 66.4449 374.92 67.4575V157.976C374.919 158.989 374.605 159.959 374.048 160.675C373.491 161.391 372.736 161.794 371.948 161.795Z" fill="#943FD8"/>
<path d="M244.14 95.1884C243.605 95.1884 243.092 95.4616 242.714 95.9479C242.335 96.4341 242.123 97.0937 242.123 97.7814C242.123 98.4691 242.335 99.1287 242.714 99.615C243.092 100.101 243.605 100.374 244.14 100.374H339.264C339.799 100.374 340.312 100.101 340.691 99.615C341.069 99.1287 341.282 98.4691 341.282 97.7814C341.282 97.0937 341.069 96.4341 340.691 95.9479C340.312 95.4616 339.799 95.1884 339.264 95.1884H244.14Z" fill="white"/>
<path d="M244.14 110.214C243.605 110.214 243.092 110.487 242.714 110.974C242.335 111.46 242.123 112.12 242.123 112.807C242.123 113.495 242.335 114.155 242.714 114.641C243.092 115.127 243.605 115.4 244.14 115.4H339.264C339.799 115.4 340.312 115.127 340.691 114.641C341.069 114.155 341.282 113.495 341.282 112.807C341.282 112.12 341.069 111.46 340.691 110.974C340.312 110.487 339.799 110.214 339.264 110.214H244.14Z" fill="white"/>
<path d="M244.14 125.058C243.605 125.058 243.092 125.332 242.714 125.818C242.335 126.304 242.123 126.964 242.123 127.652C242.123 128.339 242.335 128.999 242.714 129.485C243.092 129.971 243.605 130.245 244.14 130.245H285.072C285.607 130.245 286.12 129.971 286.499 129.485C286.877 128.999 287.09 128.339 287.09 127.652C287.09 126.964 286.877 126.304 286.499 125.818C286.12 125.332 285.607 125.058 285.072 125.058H244.14Z" fill="white"/>
<path d="M115.277 10.0363C113.928 9.85453 112.657 10.7768 111.33 11.1539C108.602 11.9224 105.807 10.3296 103.002 10.3432C100.591 10.5194 98.2459 11.419 96.1542 12.9699C94.4626 13.9974 92.9189 15.3864 91.5889 17.0777C90.2515 18.7963 89.4728 21.1045 89.4109 23.5339C89.5962 24.9254 89.5629 26.3506 89.313 27.7254C89.0302 28.4186 88.6945 29.0739 88.3108 29.6816C87.9638 30.3977 87.7421 31.2023 87.6614 32.0396C87.5806 32.8768 87.6426 33.7267 87.8432 34.53C88.4052 36.1215 89.1653 37.5846 90.0935 38.8618C91.8985 41.8376 93.0292 45.4009 94.6488 48.5592C95.3555 49.9301 96.1481 51.2245 97.0189 52.4295C97.1613 52.6429 97.335 52.8184 97.53 52.9461C97.7218 53.0327 97.9248 53.0707 98.1279 53.0577C101.564 53.1836 105.119 53.2809 108.282 51.5487C109.296 51.0971 110.156 50.2084 110.718 49.0336C111.174 47.4218 111.257 45.6746 110.956 44.0035C110.813 42.1423 110.845 40.2655 111.054 38.4146C111.069 37.7895 111.268 37.1948 111.611 36.7517C111.871 36.5445 112.168 36.4288 112.473 36.4163C112.779 36.4037 113.081 36.4947 113.35 36.6801C113.888 37.0439 114.475 37.2715 115.079 37.3506C116.264 37.3506 117.014 35.6176 117.254 34.1086C117.123 32.7524 117.279 31.3761 117.706 30.1245C118.133 28.8729 118.814 27.7922 119.678 26.9963C120.493 25.6679 121.052 24.1114 121.311 22.4533C121.57 20.7951 121.521 19.0819 121.168 17.4527C120.387 14.3122 117.995 10.3854 115.277 10.0363Z" fill="#2F2E41"/>
<path d="M324.909 387.17H164.418C163.63 387.168 162.875 386.765 162.318 386.049C161.76 385.333 161.447 384.363 161.446 383.35V332.185C161.447 331.172 161.76 330.201 162.317 329.485C162.874 328.769 163.63 328.366 164.418 328.365H324.909C325.697 328.367 326.452 328.769 327.009 329.485C327.566 330.201 327.88 331.172 327.881 332.185V383.349C327.88 384.362 327.566 385.333 327.009 386.049C326.452 386.765 325.697 387.168 324.909 387.169V387.17ZM164.418 329.89C163.946 329.891 163.493 330.133 163.159 330.562C162.825 330.991 162.637 331.573 162.636 332.18V383.344C162.637 383.951 162.825 384.533 163.159 384.962C163.493 385.391 163.946 385.633 164.418 385.634H324.909C325.381 385.633 325.834 385.391 326.168 384.962C326.502 384.533 326.69 383.951 326.69 383.344V332.185C326.689 331.578 326.501 330.996 326.167 330.567C325.834 330.138 325.381 329.896 324.909 329.895L164.418 329.89Z" fill="#3F3D56"/>
<path d="M143.037 199.87L137.622 126.103L121.477 126.819L134.258 199.664C133.215 200.789 132.464 202.296 132.106 203.984C131.748 205.672 131.799 207.46 132.253 209.109C132.707 210.759 133.542 212.191 134.647 213.214C135.751 214.237 137.072 214.802 138.433 214.834C139.794 214.866 141.131 214.363 142.263 213.393C143.396 212.422 144.271 211.03 144.772 209.403C145.272 207.776 145.374 205.992 145.064 204.288C144.754 202.584 144.047 201.043 143.037 199.87L143.037 199.87Z" fill="#FFB8B8"/>
<path d="M143.189 127.534L118.692 134.689L117.579 83.1719L131.497 83.8874L143.189 127.534Z" fill="#3F3D56"/>
<path d="M117.191 372.385L134.959 372.384H134.96C137.963 372.384 140.843 373.917 142.967 376.646C145.09 379.375 146.283 383.077 146.283 386.936V387.409L117.192 387.41L117.191 372.385Z" fill="#2F2E41"/>
<path d="M72.5649 354.304L87.5019 366.671L87.5025 366.672C90.0269 368.762 91.8018 372.055 92.4369 375.828C93.0719 379.6 92.5151 383.542 90.8888 386.786L90.6895 387.184L66.2333 366.936L72.5649 354.304Z" fill="#2F2E41"/>
<path d="M411 387.225H0V388.657H411V387.225Z" fill="#CACACA"/>
</g>
<defs>
<clipPath id="clip0">
<rect width="411" height="388" fill="white" transform="translate(0 0.656494)"/>
</clipPath>
</defs>
</svg>
